<svg xmlns="http://www.w3.org/2000/svg" width="800" height="520" viewBox="0 0 800 520" font-family="-apple-system,BlinkMacSystemFont,Segoe UI,Helvetica,Arial,sans-serif">
<defs><linearGradient id="fill" x1="0" y1="0" x2="0" y2="1"><stop offset="0" stop-color="#e91e63" stop-opacity="0.18"/><stop offset="1" stop-color="#e91e63" stop-opacity="0"/></linearGradient></defs>
<rect x="0" y="0" width="800" height="520" rx="8" fill="#ffffff"/>
<line x1="66" y1="466.0" x2="768" y2="466.0" stroke="#eaeef2" stroke-width="1"/>
<text x="56" y="470.0" text-anchor="end" font-size="12" fill="#57606a">0</text>
<line x1="66" y1="362.5" x2="768" y2="362.5" stroke="#eaeef2" stroke-width="1"/>
<text x="56" y="366.5" text-anchor="end" font-size="12" fill="#57606a">200</text>
<line x1="66" y1="259.0" x2="768" y2="259.0" stroke="#eaeef2" stroke-width="1"/>
<text x="56" y="263.0" text-anchor="end" font-size="12" fill="#57606a">400</text>
<line x1="66" y1="155.5" x2="768" y2="155.5" stroke="#eaeef2" stroke-width="1"/>
<text x="56" y="159.5" text-anchor="end" font-size="12" fill="#57606a">600</text>
<line x1="66" y1="52.0" x2="768" y2="52.0" stroke="#eaeef2" stroke-width="1"/>
<text x="56" y="56.0" text-anchor="end" font-size="12" fill="#57606a">800</text>
<line x1="111.3" y1="52" x2="111.3" y2="466" stroke="#f2f4f6" stroke-width="1"/>
<text x="111.3" y="488" text-anchor="middle" font-size="12" fill="#57606a">2018</text>
<line x1="188.1" y1="52" x2="188.1" y2="466" stroke="#f2f4f6" stroke-width="1"/>
<text x="188.1" y="488" text-anchor="middle" font-size="12" fill="#57606a">2019</text>
<line x1="264.9" y1="52" x2="264.9" y2="466" stroke="#f2f4f6" stroke-width="1"/>
<text x="264.9" y="488" text-anchor="middle" font-size="12" fill="#57606a">2020</text>
<line x1="341.9" y1="52" x2="341.9" y2="466" stroke="#f2f4f6" stroke-width="1"/>
<text x="341.9" y="488" text-anchor="middle" font-size="12" fill="#57606a">2021</text>
<line x1="418.7" y1="52" x2="418.7" y2="466" stroke="#f2f4f6" stroke-width="1"/>
<text x="418.7" y="488" text-anchor="middle" font-size="12" fill="#57606a">2022</text>
<line x1="495.5" y1="52" x2="495.5" y2="466" stroke="#f2f4f6" stroke-width="1"/>
<text x="495.5" y="488" text-anchor="middle" font-size="12" fill="#57606a">2023</text>
<line x1="572.2" y1="52" x2="572.2" y2="466" stroke="#f2f4f6" stroke-width="1"/>
<text x="572.2" y="488" text-anchor="middle" font-size="12" fill="#57606a">2024</text>
<line x1="649.2" y1="52" x2="649.2" y2="466" stroke="#f2f4f6" stroke-width="1"/>
<text x="649.2" y="488" text-anchor="middle" font-size="12" fill="#57606a">2025</text>
<line x1="726.0" y1="52" x2="726.0" y2="466" stroke="#f2f4f6" stroke-width="1"/>
<text x="726.0" y="488" text-anchor="middle" font-size="12" fill="#57606a">2026</text>
<line x1="66" y1="466" x2="768" y2="466" stroke="#d0d7de"/>
<line x1="66" y1="52" x2="66" y2="466" stroke="#d0d7de"/>
<path d="M66.0,466 L66.0,465.5 L67.4,465.0 L67.4,464.4 L67.5,463.9 L69.4,463.4 L69.4,462.9 L74.2,462.4 L74.3,461.9 L74.3,461.3 L74.3,460.8 L74.4,460.3 L74.4,459.8 L74.5,459.3 L74.5,458.8 L74.6,458.2 L74.6,457.7 L74.7,457.2 L74.8,456.7 L74.8,456.2 L74.9,455.6 L74.9,455.1 L75.0,454.6 L75.4,454.1 L75.5,453.6 L75.9,453.1 L75.9,452.5 L76.1,452.0 L76.3,451.5 L76.3,451.0 L79.6,450.5 L80.4,450.0 L80.7,449.4 L83.0,448.9 L87.0,448.4 L90.4,447.9 L91.6,447.4 L95.3,446.9 L98.2,446.3 L99.0,445.8 L100.8,445.3 L104.5,444.8 L105.2,444.3 L105.9,443.7 L115.6,443.2 L117.8,442.7 L117.8,442.2 L117.8,441.7 L117.8,441.2 L117.8,440.6 L117.9,440.1 L117.9,439.6 L118.0,439.1 L118.1,438.6 L118.2,438.1 L118.6,437.5 L118.7,437.0 L118.8,436.5 L119.6,436.0 L120.4,435.5 L122.3,434.9 L122.3,434.4 L122.3,433.9 L122.7,433.4 L124.0,432.9 L124.7,432.4 L126.0,431.8 L127.9,431.3 L129.1,430.8 L129.4,430.3 L129.4,429.8 L129.4,429.3 L129.5,428.7 L134.9,428.2 L135.0,427.7 L135.1,427.2 L137.3,426.7 L139.8,426.2 L139.9,425.6 L140.0,425.1 L140.1,424.6 L140.3,424.1 L140.7,423.6 L140.7,423.0 L141.0,422.5 L143.0,422.0 L144.0,421.5 L145.7,421.0 L146.6,420.5 L148.0,419.9 L149.1,419.4 L154.5,418.9 L154.6,418.4 L154.6,417.9 L156.0,417.4 L156.9,416.8 L157.9,416.3 L160.1,415.8 L160.4,415.3 L160.8,414.8 L161.1,414.2 L161.1,413.7 L161.1,413.2 L161.2,412.7 L161.2,412.2 L161.2,411.7 L161.3,411.1 L161.3,410.6 L161.3,410.1 L161.5,409.6 L161.9,409.1 L162.1,408.6 L163.7,408.0 L164.3,407.5 L166.0,407.0 L167.0,406.5 L167.8,406.0 L168.7,405.5 L169.6,404.9 L170.6,404.4 L173.0,403.9 L173.0,403.4 L175.8,402.9 L176.5,402.3 L176.5,401.8 L176.5,401.3 L176.6,400.8 L176.8,400.3 L178.8,399.8 L181.0,399.2 L181.3,398.7 L181.9,398.2 L183.4,397.7 L183.8,397.2 L186.1,396.7 L186.9,396.1 L190.8,395.6 L190.9,395.1 L195.0,394.6 L195.6,394.1 L195.8,393.6 L197.8,393.0 L199.3,392.5 L199.3,392.0 L199.3,391.5 L199.4,391.0 L199.4,390.4 L199.5,389.9 L199.6,389.4 L199.7,388.9 L200.1,388.4 L200.2,387.9 L202.3,387.3 L202.8,386.8 L203.1,386.3 L203.1,385.8 L205.2,385.3 L210.1,384.8 L210.3,384.2 L212.8,383.7 L213.0,383.2 L214.7,382.7 L215.1,382.2 L217.7,381.6 L218.9,381.1 L223.0,380.6 L223.3,380.1 L223.6,379.6 L225.9,379.1 L227.0,378.5 L227.6,378.0 L227.8,377.5 L227.9,377.0 L228.6,376.5 L231.5,376.0 L232.6,375.4 L233.2,374.9 L234.4,374.4 L234.5,373.9 L234.5,373.4 L234.5,372.9 L234.5,372.3 L234.5,371.8 L234.5,371.3 L234.5,370.8 L234.5,370.3 L234.5,369.7 L234.5,369.2 L234.5,368.7 L234.5,368.2 L234.5,367.7 L234.5,367.2 L234.5,366.6 L234.5,366.1 L234.5,365.6 L234.5,365.1 L234.5,364.6 L234.5,364.1 L234.5,363.5 L234.5,363.0 L234.5,362.5 L234.6,362.0 L234.6,361.5 L234.6,360.9 L234.6,360.4 L234.7,359.9 L234.7,359.4 L234.7,358.9 L234.7,358.4 L234.7,357.8 L234.7,357.3 L234.7,356.8 L234.7,356.3 L234.7,355.8 L234.7,355.3 L234.7,354.7 L234.7,354.2 L234.7,353.7 L234.7,353.2 L234.7,352.7 L234.7,352.1 L234.8,351.6 L234.8,351.1 L235.1,350.6 L235.1,350.1 L235.2,349.6 L235.2,349.0 L235.3,348.5 L235.3,348.0 L235.3,347.5 L235.8,347.0 L236.0,346.5 L237.0,345.9 L237.2,345.4 L237.2,344.9 L237.2,344.4 L237.2,343.9 L237.5,343.4 L237.8,342.8 L237.9,342.3 L238.4,341.8 L238.7,341.3 L239.6,340.8 L240.1,340.2 L241.1,339.7 L241.2,339.2 L241.2,338.7 L242.2,338.2 L242.4,337.7 L242.5,337.1 L242.9,336.6 L242.9,336.1 L243.0,335.6 L243.1,335.1 L244.5,334.6 L244.7,334.0 L245.6,333.5 L245.8,333.0 L247.9,332.5 L250.0,332.0 L252.1,331.4 L252.6,330.9 L253.0,330.4 L256.1,329.9 L256.3,329.4 L256.6,328.9 L256.7,328.3 L257.8,327.8 L257.8,327.3 L259.7,326.8 L259.7,326.3 L260.0,325.8 L260.4,325.2 L261.6,324.7 L263.3,324.2 L263.3,323.7 L264.7,323.2 L265.0,322.7 L265.0,322.1 L269.2,321.6 L269.3,321.1 L269.4,320.6 L271.9,320.1 L271.9,319.5 L272.6,319.0 L273.0,318.5 L273.6,318.0 L273.6,317.5 L275.6,317.0 L275.7,316.4 L276.1,315.9 L276.3,315.4 L277.1,314.9 L277.2,314.4 L278.2,313.9 L278.3,313.3 L278.7,312.8 L278.7,312.3 L278.7,311.8 L278.7,311.3 L278.7,310.8 L278.7,310.2 L278.7,309.7 L278.7,309.2 L278.7,308.7 L278.7,308.2 L278.8,307.6 L278.8,307.1 L278.8,306.6 L278.8,306.1 L278.8,305.6 L278.8,305.1 L278.9,304.5 L278.9,304.0 L278.9,303.5 L278.9,303.0 L278.9,302.5 L278.9,302.0 L278.9,301.4 L279.0,300.9 L279.0,300.4 L279.1,299.9 L279.1,299.4 L279.1,298.8 L279.1,298.3 L279.2,297.8 L279.3,297.3 L279.3,296.8 L279.3,296.3 L279.3,295.7 L279.3,295.2 L279.3,294.7 L279.3,294.2 L279.3,293.7 L279.4,293.2 L279.4,292.6 L279.5,292.1 L279.9,291.6 L279.9,291.1 L280.0,290.6 L280.8,290.1 L281.0,289.5 L281.1,289.0 L281.1,288.5 L281.2,288.0 L281.2,287.5 L282.5,286.9 L282.6,286.4 L282.9,285.9 L283.0,285.4 L284.3,284.9 L285.4,284.4 L286.4,283.8 L287.0,283.3 L287.0,282.8 L288.0,282.3 L288.0,281.8 L288.5,281.3 L289.5,280.7 L289.6,280.2 L289.9,279.7 L291.9,279.2 L293.3,278.7 L293.8,278.1 L295.9,277.6 L298.1,277.1 L300.8,276.6 L301.3,276.1 L304.5,275.6 L307.5,275.0 L308.6,274.5 L309.0,274.0 L309.1,273.5 L309.6,273.0 L309.8,272.5 L309.9,271.9 L310.0,271.4 L310.0,270.9 L310.0,270.4 L310.0,269.9 L310.0,269.4 L310.0,268.8 L310.0,268.3 L310.0,267.8 L310.0,267.3 L310.0,266.8 L310.0,266.2 L310.0,265.7 L310.1,265.2 L310.1,264.7 L310.2,264.2 L310.4,263.7 L310.4,263.1 L310.4,262.6 L310.4,262.1 L310.4,261.6 L310.4,261.1 L310.4,260.6 L310.4,260.0 L310.5,259.5 L310.5,259.0 L310.5,258.5 L310.5,258.0 L310.6,257.4 L310.6,256.9 L310.6,256.4 L310.6,255.9 L310.8,255.4 L310.8,254.9 L310.8,254.3 L311.0,253.8 L311.2,253.3 L311.9,252.8 L312.9,252.3 L313.6,251.8 L313.6,251.2 L313.7,250.7 L313.7,250.2 L313.8,249.7 L313.8,249.2 L313.8,248.6 L314.2,248.1 L314.2,247.6 L314.3,247.1 L314.6,246.6 L314.8,246.1 L314.9,245.5 L314.9,245.0 L315.2,244.5 L315.5,244.0 L315.7,243.5 L315.9,243.0 L315.9,242.4 L316.4,241.9 L316.5,241.4 L316.6,240.9 L317.2,240.4 L317.3,239.9 L317.3,239.3 L317.3,238.8 L317.3,238.3 L317.3,237.8 L317.3,237.3 L317.3,236.7 L317.5,236.2 L317.8,235.7 L318.0,235.2 L318.0,234.7 L318.7,234.2 L319.0,233.6 L319.0,233.1 L319.4,232.6 L319.5,232.1 L319.7,231.6 L326.2,231.1 L326.4,230.5 L326.5,230.0 L326.9,229.5 L328.1,229.0 L329.3,228.5 L329.6,228.0 L329.8,227.4 L331.0,226.9 L331.1,226.4 L331.4,225.9 L332.7,225.4 L333.1,224.8 L334.3,224.3 L334.6,223.8 L334.6,223.3 L335.9,222.8 L338.5,222.3 L339.2,221.7 L340.1,221.2 L341.3,220.7 L341.8,220.2 L342.5,219.7 L343.0,219.2 L343.0,218.6 L344.0,218.1 L344.1,217.6 L344.1,217.1 L344.1,216.6 L344.1,216.0 L344.2,215.5 L344.3,215.0 L344.3,214.5 L345.1,214.0 L345.2,213.5 L345.9,212.9 L346.4,212.4 L346.6,211.9 L347.0,211.4 L347.5,210.9 L349.6,210.4 L349.7,209.8 L350.6,209.3 L351.0,208.8 L351.7,208.3 L351.9,207.8 L352.0,207.2 L352.3,206.7 L356.3,206.2 L356.7,205.7 L357.3,205.2 L357.9,204.7 L358.0,204.1 L360.2,203.6 L360.6,203.1 L362.1,202.6 L363.4,202.1 L363.5,201.6 L364.9,201.0 L366.0,200.5 L366.4,200.0 L366.9,199.5 L367.2,199.0 L368.2,198.5 L368.3,197.9 L369.5,197.4 L369.9,196.9 L371.6,196.4 L372.4,195.9 L372.9,195.3 L374.5,194.8 L375.6,194.3 L376.3,193.8 L376.3,193.3 L376.5,192.8 L377.0,192.2 L378.0,191.7 L378.4,191.2 L378.9,190.7 L380.5,190.2 L382.5,189.7 L382.7,189.1 L383.0,188.6 L383.8,188.1 L383.8,187.6 L384.6,187.1 L385.3,186.5 L385.5,186.0 L385.5,185.5 L387.0,185.0 L387.4,184.5 L387.4,184.0 L387.4,183.4 L387.4,182.9 L387.4,182.4 L387.4,181.9 L387.4,181.4 L387.4,180.9 L387.4,180.3 L387.4,179.8 L387.4,179.3 L387.4,178.8 L387.4,178.3 L387.4,177.8 L387.5,177.2 L388.1,176.7 L388.9,176.2 L392.0,175.7 L395.3,175.2 L397.1,174.6 L400.2,174.1 L401.1,173.6 L401.2,173.1 L401.3,172.6 L401.5,172.1 L402.1,171.5 L402.2,171.0 L402.4,170.5 L405.0,170.0 L406.7,169.5 L408.1,169.0 L410.7,168.4 L415.4,167.9 L416.1,167.4 L416.5,166.9 L416.6,166.4 L417.4,165.9 L417.7,165.3 L418.1,164.8 L419.6,164.3 L420.5,163.8 L422.5,163.3 L422.5,162.7 L422.7,162.2 L425.2,161.7 L426.1,161.2 L426.4,160.7 L426.7,160.2 L427.0,159.6 L428.7,159.1 L432.3,158.6 L433.2,158.1 L434.1,157.6 L438.9,157.1 L439.0,156.5 L440.0,156.0 L441.6,155.5 L442.9,155.0 L443.2,154.5 L443.9,153.9 L444.7,153.4 L446.3,152.9 L447.4,152.4 L447.6,151.9 L447.9,151.4 L448.8,150.8 L449.1,150.3 L450.3,149.8 L450.6,149.3 L451.4,148.8 L452.5,148.3 L453.8,147.7 L455.8,147.2 L456.3,146.7 L456.6,146.2 L460.0,145.7 L460.4,145.1 L462.3,144.6 L464.4,144.1 L464.6,143.6 L466.5,143.1 L468.2,142.6 L468.7,142.0 L472.2,141.5 L472.2,141.0 L475.6,140.5 L477.8,140.0 L482.1,139.5 L484.9,138.9 L485.1,138.4 L485.4,137.9 L486.4,137.4 L486.7,136.9 L487.7,136.4 L489.3,135.8 L492.0,135.3 L492.1,134.8 L492.1,134.3 L492.2,133.8 L492.6,133.2 L492.7,132.7 L492.8,132.2 L494.1,131.7 L494.7,131.2 L496.4,130.7 L497.6,130.1 L498.4,129.6 L501.8,129.1 L503.5,128.6 L505.2,128.1 L506.5,127.6 L511.0,127.0 L515.1,126.5 L515.8,126.0 L519.3,125.5 L519.5,125.0 L520.9,124.5 L526.8,123.9 L528.7,123.4 L529.7,122.9 L530.1,122.4 L531.2,121.9 L535.9,121.3 L537.6,120.8 L538.6,120.3 L539.1,119.8 L540.0,119.3 L540.4,118.8 L544.9,118.2 L548.3,117.7 L558.0,117.2 L558.4,116.7 L579.7,116.2 L582.9,115.7 L587.1,115.1 L593.6,114.6 L599.2,114.1 L611.9,113.6 L612.7,113.1 L614.3,112.5 L616.3,112.0 L616.6,111.5 L617.9,111.0 L620.0,110.5 L620.9,110.0 L623.9,109.4 L627.9,108.9 L632.9,108.4 L634.9,107.9 L637.0,107.4 L637.3,106.9 L644.0,106.3 L648.0,105.8 L651.2,105.3 L651.2,104.8 L660.0,104.3 L662.4,103.8 L665.0,103.2 L667.1,102.7 L676.3,102.2 L677.5,101.7 L688.9,101.2 L690.2,100.6 L693.7,100.1 L693.8,99.6 L694.7,99.1 L696.9,98.6 L697.2,98.1 L708.4,97.5 L709.9,97.0 L733.0,96.5 L733.0,96.0 L737.9,95.5 L738.0,95.0 L743.3,94.4 L743.8,93.9 L752.0,93.4 L752.6,92.9 L754.3,92.4 L756.3,91.8 L760.2,91.3 L761.3,90.8 L761.3,466 Z" fill="url(#fill)"/>
<polyline points="66.0,465.5 67.4,465.0 67.4,464.4 67.5,463.9 69.4,463.4 69.4,462.9 74.2,462.4 74.3,461.9 74.3,461.3 74.3,460.8 74.4,460.3 74.4,459.8 74.5,459.3 74.5,458.8 74.6,458.2 74.6,457.7 74.7,457.2 74.8,456.7 74.8,456.2 74.9,455.6 74.9,455.1 75.0,454.6 75.4,454.1 75.5,453.6 75.9,453.1 75.9,452.5 76.1,452.0 76.3,451.5 76.3,451.0 79.6,450.5 80.4,450.0 80.7,449.4 83.0,448.9 87.0,448.4 90.4,447.9 91.6,447.4 95.3,446.9 98.2,446.3 99.0,445.8 100.8,445.3 104.5,444.8 105.2,444.3 105.9,443.7 115.6,443.2 117.8,442.7 117.8,442.2 117.8,441.7 117.8,441.2 117.8,440.6 117.9,440.1 117.9,439.6 118.0,439.1 118.1,438.6 118.2,438.1 118.6,437.5 118.7,437.0 118.8,436.5 119.6,436.0 120.4,435.5 122.3,434.9 122.3,434.4 122.3,433.9 122.7,433.4 124.0,432.9 124.7,432.4 126.0,431.8 127.9,431.3 129.1,430.8 129.4,430.3 129.4,429.8 129.4,429.3 129.5,428.7 134.9,428.2 135.0,427.7 135.1,427.2 137.3,426.7 139.8,426.2 139.9,425.6 140.0,425.1 140.1,424.6 140.3,424.1 140.7,423.6 140.7,423.0 141.0,422.5 143.0,422.0 144.0,421.5 145.7,421.0 146.6,420.5 148.0,419.9 149.1,419.4 154.5,418.9 154.6,418.4 154.6,417.9 156.0,417.4 156.9,416.8 157.9,416.3 160.1,415.8 160.4,415.3 160.8,414.8 161.1,414.2 161.1,413.7 161.1,413.2 161.2,412.7 161.2,412.2 161.2,411.7 161.3,411.1 161.3,410.6 161.3,410.1 161.5,409.6 161.9,409.1 162.1,408.6 163.7,408.0 164.3,407.5 166.0,407.0 167.0,406.5 167.8,406.0 168.7,405.5 169.6,404.9 170.6,404.4 173.0,403.9 173.0,403.4 175.8,402.9 176.5,402.3 176.5,401.8 176.5,401.3 176.6,400.8 176.8,400.3 178.8,399.8 181.0,399.2 181.3,398.7 181.9,398.2 183.4,397.7 183.8,397.2 186.1,396.7 186.9,396.1 190.8,395.6 190.9,395.1 195.0,394.6 195.6,394.1 195.8,393.6 197.8,393.0 199.3,392.5 199.3,392.0 199.3,391.5 199.4,391.0 199.4,390.4 199.5,389.9 199.6,389.4 199.7,388.9 200.1,388.4 200.2,387.9 202.3,387.3 202.8,386.8 203.1,386.3 203.1,385.8 205.2,385.3 210.1,384.8 210.3,384.2 212.8,383.7 213.0,383.2 214.7,382.7 215.1,382.2 217.7,381.6 218.9,381.1 223.0,380.6 223.3,380.1 223.6,379.6 225.9,379.1 227.0,378.5 227.6,378.0 227.8,377.5 227.9,377.0 228.6,376.5 231.5,376.0 232.6,375.4 233.2,374.9 234.4,374.4 234.5,373.9 234.5,373.4 234.5,372.9 234.5,372.3 234.5,371.8 234.5,371.3 234.5,370.8 234.5,370.3 234.5,369.7 234.5,369.2 234.5,368.7 234.5,368.2 234.5,367.7 234.5,367.2 234.5,366.6 234.5,366.1 234.5,365.6 234.5,365.1 234.5,364.6 234.5,364.1 234.5,363.5 234.5,363.0 234.5,362.5 234.6,362.0 234.6,361.5 234.6,360.9 234.6,360.4 234.7,359.9 234.7,359.4 234.7,358.9 234.7,358.4 234.7,357.8 234.7,357.3 234.7,356.8 234.7,356.3 234.7,355.8 234.7,355.3 234.7,354.7 234.7,354.2 234.7,353.7 234.7,353.2 234.7,352.7 234.7,352.1 234.8,351.6 234.8,351.1 235.1,350.6 235.1,350.1 235.2,349.6 235.2,349.0 235.3,348.5 235.3,348.0 235.3,347.5 235.8,347.0 236.0,346.5 237.0,345.9 237.2,345.4 237.2,344.9 237.2,344.4 237.2,343.9 237.5,343.4 237.8,342.8 237.9,342.3 238.4,341.8 238.7,341.3 239.6,340.8 240.1,340.2 241.1,339.7 241.2,339.2 241.2,338.7 242.2,338.2 242.4,337.7 242.5,337.1 242.9,336.6 242.9,336.1 243.0,335.6 243.1,335.1 244.5,334.6 244.7,334.0 245.6,333.5 245.8,333.0 247.9,332.5 250.0,332.0 252.1,331.4 252.6,330.9 253.0,330.4 256.1,329.9 256.3,329.4 256.6,328.9 256.7,328.3 257.8,327.8 257.8,327.3 259.7,326.8 259.7,326.3 260.0,325.8 260.4,325.2 261.6,324.7 263.3,324.2 263.3,323.7 264.7,323.2 265.0,322.7 265.0,322.1 269.2,321.6 269.3,321.1 269.4,320.6 271.9,320.1 271.9,319.5 272.6,319.0 273.0,318.5 273.6,318.0 273.6,317.5 275.6,317.0 275.7,316.4 276.1,315.9 276.3,315.4 277.1,314.9 277.2,314.4 278.2,313.9 278.3,313.3 278.7,312.8 278.7,312.3 278.7,311.8 278.7,311.3 278.7,310.8 278.7,310.2 278.7,309.7 278.7,309.2 278.7,308.7 278.7,308.2 278.8,307.6 278.8,307.1 278.8,306.6 278.8,306.1 278.8,305.6 278.8,305.1 278.9,304.5 278.9,304.0 278.9,303.5 278.9,303.0 278.9,302.5 278.9,302.0 278.9,301.4 279.0,300.9 279.0,300.4 279.1,299.9 279.1,299.4 279.1,298.8 279.1,298.3 279.2,297.8 279.3,297.3 279.3,296.8 279.3,296.3 279.3,295.7 279.3,295.2 279.3,294.7 279.3,294.2 279.3,293.7 279.4,293.2 279.4,292.6 279.5,292.1 279.9,291.6 279.9,291.1 280.0,290.6 280.8,290.1 281.0,289.5 281.1,289.0 281.1,288.5 281.2,288.0 281.2,287.5 282.5,286.9 282.6,286.4 282.9,285.9 283.0,285.4 284.3,284.9 285.4,284.4 286.4,283.8 287.0,283.3 287.0,282.8 288.0,282.3 288.0,281.8 288.5,281.3 289.5,280.7 289.6,280.2 289.9,279.7 291.9,279.2 293.3,278.7 293.8,278.1 295.9,277.6 298.1,277.1 300.8,276.6 301.3,276.1 304.5,275.6 307.5,275.0 308.6,274.5 309.0,274.0 309.1,273.5 309.6,273.0 309.8,272.5 309.9,271.9 310.0,271.4 310.0,270.9 310.0,270.4 310.0,269.9 310.0,269.4 310.0,268.8 310.0,268.3 310.0,267.8 310.0,267.3 310.0,266.8 310.0,266.2 310.0,265.7 310.1,265.2 310.1,264.7 310.2,264.2 310.4,263.7 310.4,263.1 310.4,262.6 310.4,262.1 310.4,261.6 310.4,261.1 310.4,260.6 310.4,260.0 310.5,259.5 310.5,259.0 310.5,258.5 310.5,258.0 310.6,257.4 310.6,256.9 310.6,256.4 310.6,255.9 310.8,255.4 310.8,254.9 310.8,254.3 311.0,253.8 311.2,253.3 311.9,252.8 312.9,252.3 313.6,251.8 313.6,251.2 313.7,250.7 313.7,250.2 313.8,249.7 313.8,249.2 313.8,248.6 314.2,248.1 314.2,247.6 314.3,247.1 314.6,246.6 314.8,246.1 314.9,245.5 314.9,245.0 315.2,244.5 315.5,244.0 315.7,243.5 315.9,243.0 315.9,242.4 316.4,241.9 316.5,241.4 316.6,240.9 317.2,240.4 317.3,239.9 317.3,239.3 317.3,238.8 317.3,238.3 317.3,237.8 317.3,237.3 317.3,236.7 317.5,236.2 317.8,235.7 318.0,235.2 318.0,234.7 318.7,234.2 319.0,233.6 319.0,233.1 319.4,232.6 319.5,232.1 319.7,231.6 326.2,231.1 326.4,230.5 326.5,230.0 326.9,229.5 328.1,229.0 329.3,228.5 329.6,228.0 329.8,227.4 331.0,226.9 331.1,226.4 331.4,225.9 332.7,225.4 333.1,224.8 334.3,224.3 334.6,223.8 334.6,223.3 335.9,222.8 338.5,222.3 339.2,221.7 340.1,221.2 341.3,220.7 341.8,220.2 342.5,219.7 343.0,219.2 343.0,218.6 344.0,218.1 344.1,217.6 344.1,217.1 344.1,216.6 344.1,216.0 344.2,215.5 344.3,215.0 344.3,214.5 345.1,214.0 345.2,213.5 345.9,212.9 346.4,212.4 346.6,211.9 347.0,211.4 347.5,210.9 349.6,210.4 349.7,209.8 350.6,209.3 351.0,208.8 351.7,208.3 351.9,207.8 352.0,207.2 352.3,206.7 356.3,206.2 356.7,205.7 357.3,205.2 357.9,204.7 358.0,204.1 360.2,203.6 360.6,203.1 362.1,202.6 363.4,202.1 363.5,201.6 364.9,201.0 366.0,200.5 366.4,200.0 366.9,199.5 367.2,199.0 368.2,198.5 368.3,197.9 369.5,197.4 369.9,196.9 371.6,196.4 372.4,195.9 372.9,195.3 374.5,194.8 375.6,194.3 376.3,193.8 376.3,193.3 376.5,192.8 377.0,192.2 378.0,191.7 378.4,191.2 378.9,190.7 380.5,190.2 382.5,189.7 382.7,189.1 383.0,188.6 383.8,188.1 383.8,187.6 384.6,187.1 385.3,186.5 385.5,186.0 385.5,185.5 387.0,185.0 387.4,184.5 387.4,184.0 387.4,183.4 387.4,182.9 387.4,182.4 387.4,181.9 387.4,181.4 387.4,180.9 387.4,180.3 387.4,179.8 387.4,179.3 387.4,178.8 387.4,178.3 387.4,177.8 387.5,177.2 388.1,176.7 388.9,176.2 392.0,175.7 395.3,175.2 397.1,174.6 400.2,174.1 401.1,173.6 401.2,173.1 401.3,172.6 401.5,172.1 402.1,171.5 402.2,171.0 402.4,170.5 405.0,170.0 406.7,169.5 408.1,169.0 410.7,168.4 415.4,167.9 416.1,167.4 416.5,166.9 416.6,166.4 417.4,165.9 417.7,165.3 418.1,164.8 419.6,164.3 420.5,163.8 422.5,163.3 422.5,162.7 422.7,162.2 425.2,161.7 426.1,161.2 426.4,160.7 426.7,160.2 427.0,159.6 428.7,159.1 432.3,158.6 433.2,158.1 434.1,157.6 438.9,157.1 439.0,156.5 440.0,156.0 441.6,155.5 442.9,155.0 443.2,154.5 443.9,153.9 444.7,153.4 446.3,152.9 447.4,152.4 447.6,151.9 447.9,151.4 448.8,150.8 449.1,150.3 450.3,149.8 450.6,149.3 451.4,148.8 452.5,148.3 453.8,147.7 455.8,147.2 456.3,146.7 456.6,146.2 460.0,145.7 460.4,145.1 462.3,144.6 464.4,144.1 464.6,143.6 466.5,143.1 468.2,142.6 468.7,142.0 472.2,141.5 472.2,141.0 475.6,140.5 477.8,140.0 482.1,139.5 484.9,138.9 485.1,138.4 485.4,137.9 486.4,137.4 486.7,136.9 487.7,136.4 489.3,135.8 492.0,135.3 492.1,134.8 492.1,134.3 492.2,133.8 492.6,133.2 492.7,132.7 492.8,132.2 494.1,131.7 494.7,131.2 496.4,130.7 497.6,130.1 498.4,129.6 501.8,129.1 503.5,128.6 505.2,128.1 506.5,127.6 511.0,127.0 515.1,126.5 515.8,126.0 519.3,125.5 519.5,125.0 520.9,124.5 526.8,123.9 528.7,123.4 529.7,122.9 530.1,122.4 531.2,121.9 535.9,121.3 537.6,120.8 538.6,120.3 539.1,119.8 540.0,119.3 540.4,118.8 544.9,118.2 548.3,117.7 558.0,117.2 558.4,116.7 579.7,116.2 582.9,115.7 587.1,115.1 593.6,114.6 599.2,114.1 611.9,113.6 612.7,113.1 614.3,112.5 616.3,112.0 616.6,111.5 617.9,111.0 620.0,110.5 620.9,110.0 623.9,109.4 627.9,108.9 632.9,108.4 634.9,107.9 637.0,107.4 637.3,106.9 644.0,106.3 648.0,105.8 651.2,105.3 651.2,104.8 660.0,104.3 662.4,103.8 665.0,103.2 667.1,102.7 676.3,102.2 677.5,101.7 688.9,101.2 690.2,100.6 693.7,100.1 693.8,99.6 694.7,99.1 696.9,98.6 697.2,98.1 708.4,97.5 709.9,97.0 733.0,96.5 733.0,96.0 737.9,95.5 738.0,95.0 743.3,94.4 743.8,93.9 752.0,93.4 752.6,92.9 754.3,92.4 756.3,91.8 760.2,91.3 761.3,90.8" fill="none" stroke="#e91e63" stroke-width="2" stroke-linejoin="round" stroke-linecap="round"/>
<text x="10" y="30" font-size="17" font-weight="700" fill="#1f2328">Star History</text>
<circle cx="650" cy="26" r="5" fill="#e91e63"/>
<text x="662" y="30" font-size="13" fill="#1f2328">PyPtt/PyPtt</text>
</svg>